<svg version="1" xmlns="http://www.w3.org/2000/svg" width="566.667" height="566.667" viewBox="0 0 425.000000 425.000000"><path d="M121 46.5c-48 23.9-87.9 44-88.6 44.6-1.2 1-1.4 21-1.4 117.9 0 109.8.1 116.9 1.8 118.8 1.9 2.3 174.7 88.2 177.4 88.2.9 0 22.1-10.1 47-22.4 141.1-69.6 130.3-64.1 132.1-67.9 1.6-3.2 1.7-13.2 1.6-116.9-.1-62.3-.4-114.4-.8-115.8-.6-2.1-13.6-8.8-89.1-46.2C252.3 22.7 211.6 3 210.4 3 209.3 3 169 22.6 121 46.5zm210.5 119c11.7 3 21 9.1 28.6 18.6 3.8 4.9 3.9 4.8-7.8 10.9l-8.2 4.3-4.9-4.5c-10-9.3-20.2-11.8-33-7.9-22.4 6.8-31.6 36.1-17.7 56.7 6.3 9.2 14.4 13.5 26.2 14.2 9.2.5 16-1.1 22.6-5.4 3.6-2.4 3.7-2.5 3.7-8.9v-6.4l-14.7-.3-14.8-.3-.3-10.3-.3-10.2H365v42.8l-5.7 5.2c-10.7 9.5-27.7 15.9-42.3 15.9-15.9 0-32.5-6.6-43.2-17.3-11.2-11.3-16.1-23.4-16.2-40.6 0-17.4 4.5-29.2 15.9-40.6 8.9-9.1 18.1-13.8 32-16.8 5-1 20.6-.5 26 .9zm-195.2 3.2c6.7 3.1 14.2 10.6 17.3 17.1 5.3 11.1 4.2 26.1-2.5 36.3-3.3 4.9-10.2 10.4-14.4 11.4-1.5.4-2.9 1.1-3.2 1.5-.3.5 4.9 9.9 11.5 21s12 20.6 12 21.1-6 .9-13.3.9h-13.2l-11-20-11-19.9-8.7-.1H91l-.2 19.7-.3 19.8-11.7.3-11.8.3V165.9l32.3.3c30.8.3 32.4.4 37 2.5zm62.7 42.8V257h47v21h-71V166h24v45.5z"/><path d="M91 202.1v15.1l15.3-.4c13-.3 15.7-.6 18.6-2.3 5.1-3 7.3-6.5 7.3-11.8.1-6.5-1.8-10.4-6.7-13.2-3.9-2.4-5-2.5-19.3-2.5H91v15.1z"/></svg>